<mxfile host="app.diagrams.net" modified="2024-06-19T01:02:46.974Z" agent="Mozilla/5.0 (Windows NT 10.0; Win64; x64) AppleWebKit/537.36 (KHTML, like Gecko) Chrome/126.0.0.0 Safari/537.36 Edg/126.0.0.0" etag="IUWS-hsQYgI3dEMVpmkY" version="24.5.4" type="device">
  <diagram name="第 1 页" id="J2Bawb4MYTHpkhy1dtbI">
    <mxGraphModel dx="513" dy="678" grid="1" gridSize="10" guides="1" tooltips="1" connect="1" arrows="1" fold="1" page="1" pageScale="1" pageWidth="827" pageHeight="1169" math="0" shadow="0">
      <root>
        <mxCell id="0" />
        <mxCell id="1" parent="0" />
        <mxCell id="f8_fIwA3SnlJaG2cnTeZ-1" value="E.addr = t7" style="text;html=1;align=center;verticalAlign=middle;resizable=0;points=[];autosize=1;strokeColor=none;fillColor=none;" parent="1" vertex="1">
          <mxGeometry x="356" y="100" width="80" height="30" as="geometry" />
        </mxCell>
        <mxCell id="f8_fIwA3SnlJaG2cnTeZ-2" value="" style="endArrow=none;html=1;rounded=0;" parent="1" edge="1">
          <mxGeometry width="50" height="50" relative="1" as="geometry">
            <mxPoint x="326" y="180" as="sourcePoint" />
            <mxPoint x="376" y="130" as="targetPoint" />
          </mxGeometry>
        </mxCell>
        <mxCell id="f8_fIwA3SnlJaG2cnTeZ-3" value="E.addr = c" style="text;html=1;align=center;verticalAlign=middle;resizable=0;points=[];autosize=1;strokeColor=none;fillColor=none;" parent="1" vertex="1">
          <mxGeometry x="266" y="180" width="80" height="30" as="geometry" />
        </mxCell>
        <mxCell id="f8_fIwA3SnlJaG2cnTeZ-5" value="" style="endArrow=none;html=1;rounded=0;" parent="1" edge="1">
          <mxGeometry width="50" height="50" relative="1" as="geometry">
            <mxPoint x="395.5" y="180" as="sourcePoint" />
            <mxPoint x="395.5" y="130" as="targetPoint" />
          </mxGeometry>
        </mxCell>
        <mxCell id="f8_fIwA3SnlJaG2cnTeZ-6" value="+" style="text;html=1;align=center;verticalAlign=middle;resizable=0;points=[];autosize=1;strokeColor=none;fillColor=none;" parent="1" vertex="1">
          <mxGeometry x="381" y="180" width="30" height="30" as="geometry" />
        </mxCell>
        <mxCell id="f8_fIwA3SnlJaG2cnTeZ-7" value="" style="endArrow=none;html=1;rounded=0;entryX=0.896;entryY=1.01;entryDx=0;entryDy=0;entryPerimeter=0;" parent="1" target="f8_fIwA3SnlJaG2cnTeZ-1" edge="1">
          <mxGeometry width="50" height="50" relative="1" as="geometry">
            <mxPoint x="486" y="182" as="sourcePoint" />
            <mxPoint x="486" y="142" as="targetPoint" />
          </mxGeometry>
        </mxCell>
        <mxCell id="f8_fIwA3SnlJaG2cnTeZ-8" value="E.addr = t6" style="text;html=1;align=center;verticalAlign=middle;resizable=0;points=[];autosize=1;strokeColor=none;fillColor=none;" parent="1" vertex="1">
          <mxGeometry x="451" y="180" width="80" height="30" as="geometry" />
        </mxCell>
        <mxCell id="f8_fIwA3SnlJaG2cnTeZ-9" value="" style="endArrow=none;html=1;rounded=0;" parent="1" edge="1">
          <mxGeometry width="50" height="50" relative="1" as="geometry">
            <mxPoint x="516" y="252" as="sourcePoint" />
            <mxPoint x="516" y="202" as="targetPoint" />
          </mxGeometry>
        </mxCell>
        <mxCell id="f8_fIwA3SnlJaG2cnTeZ-10" value="L.array = a&lt;div&gt;L.type = float&lt;/div&gt;&lt;div&gt;L.addr = t5&lt;/div&gt;" style="text;html=1;align=center;verticalAlign=middle;resizable=0;points=[];autosize=1;strokeColor=none;fillColor=none;" parent="1" vertex="1">
          <mxGeometry x="471" y="245" width="90" height="60" as="geometry" />
        </mxCell>
        <mxCell id="f8_fIwA3SnlJaG2cnTeZ-11" value="" style="endArrow=none;html=1;rounded=0;" parent="1" edge="1">
          <mxGeometry width="50" height="50" relative="1" as="geometry">
            <mxPoint x="426" y="352" as="sourcePoint" />
            <mxPoint x="476" y="302" as="targetPoint" />
          </mxGeometry>
        </mxCell>
        <mxCell id="f8_fIwA3SnlJaG2cnTeZ-12" value="L.array = a&lt;div&gt;L.type = array(8,float)&lt;/div&gt;&lt;div&gt;L.addr =&amp;nbsp; t3&lt;/div&gt;" style="text;html=1;align=center;verticalAlign=middle;resizable=0;points=[];autosize=1;strokeColor=none;fillColor=none;" parent="1" vertex="1">
          <mxGeometry x="326" y="345" width="140" height="60" as="geometry" />
        </mxCell>
        <mxCell id="gTVh1_-jMyPG_ixYyzB3-1" value="" style="endArrow=none;html=1;rounded=0;entryX=0.349;entryY=1.012;entryDx=0;entryDy=0;entryPerimeter=0;" edge="1" parent="1" target="f8_fIwA3SnlJaG2cnTeZ-10">
          <mxGeometry width="50" height="50" relative="1" as="geometry">
            <mxPoint x="490" y="350" as="sourcePoint" />
            <mxPoint x="510" y="330" as="targetPoint" />
          </mxGeometry>
        </mxCell>
        <mxCell id="gTVh1_-jMyPG_ixYyzB3-2" value="[" style="text;html=1;align=center;verticalAlign=middle;resizable=0;points=[];autosize=1;strokeColor=none;fillColor=none;" vertex="1" parent="1">
          <mxGeometry x="476" y="360" width="30" height="30" as="geometry" />
        </mxCell>
        <mxCell id="gTVh1_-jMyPG_ixYyzB3-3" value="" style="endArrow=none;html=1;rounded=0;entryX=0.571;entryY=1.031;entryDx=0;entryDy=0;entryPerimeter=0;" edge="1" parent="1" target="f8_fIwA3SnlJaG2cnTeZ-10">
          <mxGeometry width="50" height="50" relative="1" as="geometry">
            <mxPoint x="522" y="350" as="sourcePoint" />
            <mxPoint x="570" y="330" as="targetPoint" />
          </mxGeometry>
        </mxCell>
        <mxCell id="gTVh1_-jMyPG_ixYyzB3-5" value="" style="endArrow=none;html=1;rounded=0;entryX=0.806;entryY=1.031;entryDx=0;entryDy=0;entryPerimeter=0;" edge="1" parent="1" target="f8_fIwA3SnlJaG2cnTeZ-10">
          <mxGeometry width="50" height="50" relative="1" as="geometry">
            <mxPoint x="560" y="350" as="sourcePoint" />
            <mxPoint x="620" y="300" as="targetPoint" />
          </mxGeometry>
        </mxCell>
        <mxCell id="gTVh1_-jMyPG_ixYyzB3-7" value="" style="endArrow=none;html=1;rounded=0;" edge="1" parent="1">
          <mxGeometry width="50" height="50" relative="1" as="geometry">
            <mxPoint x="280" y="450" as="sourcePoint" />
            <mxPoint x="330" y="400" as="targetPoint" />
          </mxGeometry>
        </mxCell>
        <mxCell id="gTVh1_-jMyPG_ixYyzB3-9" value="L.array = a&lt;div&gt;L.type = array(7,8,float)&lt;/div&gt;&lt;div&gt;L.addr = t1&lt;/div&gt;" style="text;html=1;align=center;verticalAlign=middle;resizable=0;points=[];autosize=1;strokeColor=none;fillColor=none;" vertex="1" parent="1">
          <mxGeometry x="181" y="460" width="150" height="60" as="geometry" />
        </mxCell>
        <mxCell id="gTVh1_-jMyPG_ixYyzB3-11" value="" style="endArrow=none;html=1;rounded=0;entryX=0.413;entryY=1.031;entryDx=0;entryDy=0;entryPerimeter=0;" edge="1" parent="1" target="f8_fIwA3SnlJaG2cnTeZ-12">
          <mxGeometry width="50" height="50" relative="1" as="geometry">
            <mxPoint x="370" y="450" as="sourcePoint" />
            <mxPoint x="400" y="420" as="targetPoint" />
          </mxGeometry>
        </mxCell>
        <mxCell id="gTVh1_-jMyPG_ixYyzB3-12" value="[" style="text;html=1;align=center;verticalAlign=middle;resizable=0;points=[];autosize=1;strokeColor=none;fillColor=none;" vertex="1" parent="1">
          <mxGeometry x="351" y="460" width="30" height="30" as="geometry" />
        </mxCell>
        <mxCell id="gTVh1_-jMyPG_ixYyzB3-13" value="" style="endArrow=none;html=1;rounded=0;entryX=0.566;entryY=1.04;entryDx=0;entryDy=0;entryPerimeter=0;" edge="1" parent="1" target="f8_fIwA3SnlJaG2cnTeZ-12">
          <mxGeometry width="50" height="50" relative="1" as="geometry">
            <mxPoint x="406" y="450" as="sourcePoint" />
            <mxPoint x="500" y="450" as="targetPoint" />
          </mxGeometry>
        </mxCell>
        <mxCell id="gTVh1_-jMyPG_ixYyzB3-14" value="E.addr = j" style="text;html=1;align=center;verticalAlign=middle;resizable=0;points=[];autosize=1;strokeColor=none;fillColor=none;" vertex="1" parent="1">
          <mxGeometry x="370" y="460" width="80" height="30" as="geometry" />
        </mxCell>
        <mxCell id="gTVh1_-jMyPG_ixYyzB3-15" value="" style="endArrow=none;html=1;rounded=0;entryX=0.707;entryY=1.04;entryDx=0;entryDy=0;entryPerimeter=0;" edge="1" parent="1" target="f8_fIwA3SnlJaG2cnTeZ-12">
          <mxGeometry width="50" height="50" relative="1" as="geometry">
            <mxPoint x="440" y="450" as="sourcePoint" />
            <mxPoint x="500" y="450" as="targetPoint" />
          </mxGeometry>
        </mxCell>
        <mxCell id="gTVh1_-jMyPG_ixYyzB3-16" value="]" style="text;html=1;align=center;verticalAlign=middle;resizable=0;points=[];autosize=1;strokeColor=none;fillColor=none;" vertex="1" parent="1">
          <mxGeometry x="431" y="460" width="30" height="30" as="geometry" />
        </mxCell>
        <mxCell id="gTVh1_-jMyPG_ixYyzB3-17" value="E.addr = k" style="text;html=1;align=center;verticalAlign=middle;resizable=0;points=[];autosize=1;strokeColor=none;fillColor=none;" vertex="1" parent="1">
          <mxGeometry x="490" y="360" width="80" height="30" as="geometry" />
        </mxCell>
        <mxCell id="gTVh1_-jMyPG_ixYyzB3-18" value="" style="endArrow=none;html=1;rounded=0;" edge="1" parent="1">
          <mxGeometry width="50" height="50" relative="1" as="geometry">
            <mxPoint x="523" y="440" as="sourcePoint" />
            <mxPoint x="523" y="389" as="targetPoint" />
          </mxGeometry>
        </mxCell>
        <mxCell id="gTVh1_-jMyPG_ixYyzB3-19" value="k" style="text;html=1;align=center;verticalAlign=middle;resizable=0;points=[];autosize=1;strokeColor=none;fillColor=none;" vertex="1" parent="1">
          <mxGeometry x="506" y="438" width="30" height="30" as="geometry" />
        </mxCell>
        <mxCell id="gTVh1_-jMyPG_ixYyzB3-20" value="" style="endArrow=none;html=1;rounded=0;entryX=0.527;entryY=1.067;entryDx=0;entryDy=0;entryPerimeter=0;" edge="1" parent="1" target="gTVh1_-jMyPG_ixYyzB3-14">
          <mxGeometry width="50" height="50" relative="1" as="geometry">
            <mxPoint x="412" y="522" as="sourcePoint" />
            <mxPoint x="430" y="522" as="targetPoint" />
          </mxGeometry>
        </mxCell>
        <mxCell id="gTVh1_-jMyPG_ixYyzB3-21" value="j" style="text;html=1;align=center;verticalAlign=middle;resizable=0;points=[];autosize=1;strokeColor=none;fillColor=none;" vertex="1" parent="1">
          <mxGeometry x="399" y="520" width="30" height="30" as="geometry" />
        </mxCell>
        <mxCell id="gTVh1_-jMyPG_ixYyzB3-22" value="" style="endArrow=none;html=1;rounded=0;" edge="1" parent="1">
          <mxGeometry width="50" height="50" relative="1" as="geometry">
            <mxPoint x="150" y="570" as="sourcePoint" />
            <mxPoint x="200" y="520" as="targetPoint" />
          </mxGeometry>
        </mxCell>
        <mxCell id="gTVh1_-jMyPG_ixYyzB3-23" value="" style="endArrow=none;html=1;rounded=0;entryX=0.269;entryY=1;entryDx=0;entryDy=0;entryPerimeter=0;" edge="1" parent="1" target="gTVh1_-jMyPG_ixYyzB3-9">
          <mxGeometry width="50" height="50" relative="1" as="geometry">
            <mxPoint x="210" y="570" as="sourcePoint" />
            <mxPoint x="260" y="540" as="targetPoint" />
          </mxGeometry>
        </mxCell>
        <mxCell id="gTVh1_-jMyPG_ixYyzB3-24" value="" style="endArrow=none;html=1;rounded=0;entryX=0.501;entryY=1.048;entryDx=0;entryDy=0;entryPerimeter=0;" edge="1" parent="1" target="gTVh1_-jMyPG_ixYyzB3-9">
          <mxGeometry width="50" height="50" relative="1" as="geometry">
            <mxPoint x="256" y="570" as="sourcePoint" />
            <mxPoint x="320" y="560" as="targetPoint" />
          </mxGeometry>
        </mxCell>
        <mxCell id="gTVh1_-jMyPG_ixYyzB3-25" value="" style="endArrow=none;html=1;rounded=0;" edge="1" parent="1">
          <mxGeometry width="50" height="50" relative="1" as="geometry">
            <mxPoint x="300" y="570" as="sourcePoint" />
            <mxPoint x="290" y="522" as="targetPoint" />
          </mxGeometry>
        </mxCell>
        <mxCell id="gTVh1_-jMyPG_ixYyzB3-26" value="[" style="text;html=1;align=center;verticalAlign=middle;resizable=0;points=[];autosize=1;strokeColor=none;fillColor=none;" vertex="1" parent="1">
          <mxGeometry x="193" y="578" width="30" height="30" as="geometry" />
        </mxCell>
        <mxCell id="gTVh1_-jMyPG_ixYyzB3-27" value="E.addr = i" style="text;html=1;align=center;verticalAlign=middle;resizable=0;points=[];autosize=1;strokeColor=none;fillColor=none;" vertex="1" parent="1">
          <mxGeometry x="218" y="578" width="80" height="30" as="geometry" />
        </mxCell>
        <mxCell id="gTVh1_-jMyPG_ixYyzB3-28" value="]" style="text;html=1;align=center;verticalAlign=middle;resizable=0;points=[];autosize=1;strokeColor=none;fillColor=none;" vertex="1" parent="1">
          <mxGeometry x="289" y="578" width="30" height="30" as="geometry" />
        </mxCell>
        <mxCell id="gTVh1_-jMyPG_ixYyzB3-29" value="" style="endArrow=none;html=1;rounded=0;entryX=0.477;entryY=1.114;entryDx=0;entryDy=0;entryPerimeter=0;" edge="1" parent="1" target="gTVh1_-jMyPG_ixYyzB3-27">
          <mxGeometry width="50" height="50" relative="1" as="geometry">
            <mxPoint x="256" y="640" as="sourcePoint" />
            <mxPoint x="280" y="640" as="targetPoint" />
          </mxGeometry>
        </mxCell>
        <mxCell id="gTVh1_-jMyPG_ixYyzB3-30" value="i" style="text;html=1;align=center;verticalAlign=middle;resizable=0;points=[];autosize=1;strokeColor=none;fillColor=none;" vertex="1" parent="1">
          <mxGeometry x="241" y="640" width="30" height="30" as="geometry" />
        </mxCell>
        <mxCell id="gTVh1_-jMyPG_ixYyzB3-31" value="a.type&amp;nbsp;&lt;div&gt;= array(3,array(7,&lt;/div&gt;&lt;div&gt;array(8,float)))&amp;nbsp;&lt;/div&gt;" style="text;html=1;align=center;verticalAlign=middle;resizable=0;points=[];autosize=1;strokeColor=none;fillColor=none;" vertex="1" parent="1">
          <mxGeometry x="80" y="570" width="120" height="60" as="geometry" />
        </mxCell>
        <mxCell id="gTVh1_-jMyPG_ixYyzB3-32" value="]" style="text;html=1;align=center;verticalAlign=middle;resizable=0;points=[];autosize=1;strokeColor=none;fillColor=none;" vertex="1" parent="1">
          <mxGeometry x="550" y="360" width="30" height="30" as="geometry" />
        </mxCell>
      </root>
    </mxGraphModel>
  </diagram>
</mxfile>
